# xmcd
#
# Track frame offsets:
#	150
#	26405
#	45429
#	64527
#	86647
#	108749
#	126477
#	151226
#	173543
#	207769
#	228931
#	254981
#	273603
#
# Disc length: 3953 seconds
# Revision: 1
# Processed by: cddbd v1.5.2PL0 Copyright (c) Steve Scherf et al.
# Submitted via: dBpowerAMP V12.0
#
DISCID=b10f6f0d
DTITLE=Theessink, Nalle and Møller - Live
DYEAR=2007
DGENRE=Blues
TTITLE0=A Man With a Broken Heart
TTITLE1=Big Bill's Blues
TTITLE2=Shake a Hand
TTITLE3=Didn't We Try
TTITLE4=See You Later Alligator
TTITLE5=Mercury Blues
TTITLE6=Jersey Girl
TTITLE7=Wake Up Mama
TTITLE8=Bring It on Home
TTITLE9=Shake Rattel and Roll
TTITLE10=Last Train to Memphis
TTITLE11=Little Girl
TTITLE12=Hound Dog
EXTD=
EXTT0=
EXTT1=
EXTT2=
EXTT3=
EXTT4=
EXTT5=
EXTT6=
EXTT7=
EXTT8=
EXTT9=
EXTT10=
EXTT11=
EXTT12=
PLAYORDER=
